<svg width="48" height="48" viewBox="0 0 48 48" fill="none" xmlns="http://www.w3.org/2000/svg">
<rect x="1" y="1" width="46" height="46" rx="23" fill="#212121"/>
<rect x="1" y="1" width="46" height="46" rx="23" stroke="#212121" stroke-width="2"/>
<path d="M23.334 34C21.9507 34 20.6507 33.7375 19.434 33.2125C18.2173 32.6875 17.159 31.975 16.259 31.075C15.359 30.175 14.6465 29.1167 14.1215 27.9C13.5965 26.6833 13.334 25.3833 13.334 24C13.334 22.6167 13.5965 21.3167 14.1215 20.1C14.6465 18.8833 15.359 17.825 16.259 16.925C17.159 16.025 18.2173 15.3125 19.434 14.7875C20.6507 14.2625 21.9507 14 23.334 14C24.7173 14 26.0173 14.2625 27.234 14.7875C28.4507 15.3125 29.509 16.025 30.409 16.925C31.309 17.825 32.0215 18.8833 32.5465 20.1C33.0715 21.3167 33.334 22.6167 33.334 24V25.45C33.334 26.4333 32.9965 27.2708 32.3215 27.9625C31.6465 28.6542 30.8173 29 29.834 29C29.2507 29 28.7007 28.875 28.184 28.625C27.6673 28.375 27.234 28.0167 26.884 27.55C26.4007 28.0333 25.8548 28.3958 25.2465 28.6375C24.6382 28.8792 24.0007 29 23.334 29C21.9507 29 20.7715 28.5125 19.7965 27.5375C18.8215 26.5625 18.334 25.3833 18.334 24C18.334 22.6167 18.8215 21.4375 19.7965 20.4625C20.7715 19.4875 21.9507 19 23.334 19C24.7173 19 25.8965 19.4875 26.8715 20.4625C27.8465 21.4375 28.334 22.6167 28.334 24V25.45C28.334 25.8833 28.4757 26.25 28.759 26.55C29.0423 26.85 29.4007 27 29.834 27C30.2673 27 30.6257 26.85 30.909 26.55C31.1923 26.25 31.334 25.8833 31.334 25.45V24C31.334 21.7667 30.559 19.875 29.009 18.325C27.459 16.775 25.5673 16 23.334 16C21.1007 16 19.209 16.775 17.659 18.325C16.109 19.875 15.334 21.7667 15.334 24C15.334 26.2333 16.109 28.125 17.659 29.675C19.209 31.225 21.1007 32 23.334 32H28.334V34H23.334ZM23.334 27C24.1673 27 24.8757 26.7083 25.459 26.125C26.0423 25.5417 26.334 24.8333 26.334 24C26.334 23.1667 26.0423 22.4583 25.459 21.875C24.8757 21.2917 24.1673 21 23.334 21C22.5007 21 21.7923 21.2917 21.209 21.875C20.6257 22.4583 20.334 23.1667 20.334 24C20.334 24.8333 20.6257 25.5417 21.209 26.125C21.7923 26.7083 22.5007 27 23.334 27Z" fill="white"/>
</svg>
