<svg width="48" height="48" viewBox="0 0 48 48" fill="none" xmlns="http://www.w3.org/2000/svg">
<rect x="1" y="1" width="46" height="46" rx="23" fill="#212121"/>
<rect x="1" y="1" width="46" height="46" rx="23" stroke="#212121" stroke-width="2"/>
<path d="M19.5867 19.9606H15.6313C15.4557 19.9606 15.3135 20.0949 15.3135 20.2605V32.252C15.3135 32.4176 15.4557 32.5519 15.6313 32.5519H19.5867C19.7623 32.5519 19.9045 32.4176 19.9045 32.252V20.2605C19.9045 20.0949 19.7623 19.9606 19.5867 19.9606Z" fill="white"/>
<path d="M17.6101 14C16.1709 14 15 15.1037 15 16.4604C15 17.8177 16.1709 18.9218 17.6101 18.9218C19.0482 18.9218 20.2181 17.8176 20.2181 16.4604C20.2182 15.1037 19.0482 14 17.6101 14Z" fill="white"/>
<path d="M29.646 19.6631C28.0574 19.6631 26.883 20.3076 26.1707 21.0398V20.261C26.1707 20.0954 26.0285 19.9611 25.8529 19.9611H22.0649C21.8893 19.9611 21.7471 20.0954 21.7471 20.261V32.2525C21.7471 32.4182 21.8893 32.5524 22.0649 32.5524H26.0117C26.1872 32.5524 26.3295 32.4182 26.3295 32.2525V26.3195C26.3295 24.3202 26.9049 23.5413 28.3818 23.5413C29.9902 23.5413 30.118 24.79 30.118 26.4224V32.2526C30.118 32.4182 30.2603 32.5525 30.4358 32.5525H34.3841C34.5596 32.5525 34.7019 32.4182 34.7019 32.2526V25.675C34.7019 22.7022 34.1012 19.6631 29.646 19.6631Z" fill="white"/>
</svg>
